<?xml version="1.0" standalone="no"?>
<!DOCTYPE svg PUBLIC "-//W3C//DTD SVG 20010904//EN"
 "http://www.w3.org/TR/2001/REC-SVG-20010904/DTD/svg10.dtd">
<svg version="1.0" xmlns="http://www.w3.org/2000/svg"
 width="450.000000pt" height="450.000000pt" viewBox="0 0 450.000000 450.000000"
 preserveAspectRatio="xMidYMid meet">
<metadata>
Created by potrace 1.11, written by Peter Selinger 2001-2013
</metadata>
<g transform="translate(0.000000,450.000000) scale(0.100000,-0.100000)"
fill="#000000" stroke="none">
<path d="M1 3998 c1 -277 5 -512 9 -523 8 -19 9 -19 9 2 1 25 17 39 24 21 3
-7 6 1 7 17 l1 30 16 -32 c10 -19 24 -33 34 -33 18 0 59 36 59 52 0 4 5 8 10
8 6 0 10 -7 10 -15 0 -21 43 -46 80 -47 17 -1 44 8 60 20 35 27 32 27 61 1 21
-18 32 -20 88 -15 36 3 71 12 81 21 21 19 39 19 46 0 7 -18 35 -20 51 -4 8 8
17 7 34 -5 25 -17 79 -22 79 -7 0 6 -12 16 -27 23 -22 11 -28 20 -28 47 0 30
4 35 38 47 37 13 40 12 63 -13 13 -14 27 -43 30 -65 7 -40 21 -50 30 -20 3 9
13 38 24 65 15 38 16 47 4 47 -8 0 -14 -4 -14 -10 0 -15 -31 -12 -44 5 -7 10
-35 18 -77 21 -63 6 -66 5 -87 -21 -12 -15 -22 -37 -22 -49 -1 -21 -1 -21 -15
-2 -8 11 -15 27 -15 36 0 9 -9 25 -19 34 -18 16 -20 16 -38 -4 -11 -11 -26
-38 -33 -60 -18 -56 -31 -64 -75 -50 -31 10 -35 15 -35 46 0 29 4 35 28 40 46
10 52 13 52 28 0 26 -65 29 -111 6 -36 -19 -42 -20 -52 -6 -26 33 -110 41
-129 12 -5 -8 -8 -7 -8 2 0 19 -44 14 -67 -7 -20 -19 -21 -19 -38 22 -10 23
-18 44 -19 47 -1 3 -5 11 -9 18 -5 6 -7 13 -5 13 2 1 51 2 110 3 87 1 110 5
126 19 13 12 21 14 24 7 2 -6 23 -14 46 -17 36 -5 47 -2 67 17 l25 23 23 -21
c29 -28 126 -31 151 -6 20 20 20 53 1 81 -13 19 -13 26 -3 43 11 17 11 22 -2
30 -16 11 -58 4 -77 -12 -21 -17 -15 -51 13 -78 l26 -24 -22 -10 c-26 -12 -36
1 -46 58 -17 102 -66 102 -112 -1 -14 -33 -21 -40 -30 -31 -16 16 -15 28 8 73
l21 40 -21 3 c-18 3 -20 10 -18 85 2 77 2 78 5 19 4 -58 5 -62 24 -52 11 6 19
16 18 23 -1 7 0 23 1 37 2 25 2 25 15 -5 8 -16 14 -24 15 -16 0 8 14 27 31 43
23 22 38 29 58 26 24 -4 27 -1 23 19 -4 23 11 32 23 13 3 -5 10 -10 16 -10 5
0 9 5 9 10 0 6 -5 10 -11 10 -14 0 -43 29 -35 37 3 3 12 0 20 -6 10 -8 16 -9
21 -1 9 15 -3 30 -26 30 -26 0 -28 69 -1 71 9 1 -1 5 -23 9 -22 5 -48 6 -57 4
-12 -4 -18 0 -18 10 0 9 4 16 9 16 6 0 9 12 8 27 -2 24 5 31 53 56 41 21 59
26 72 18 12 -7 18 -7 21 2 3 9 7 9 19 -1 16 -13 62 -8 84 10 7 5 25 8 40 8 73
0 232 8 254 13 14 4 86 9 160 11 74 2 147 7 163 10 15 3 38 8 52 11 14 3 25
10 25 15 0 7 -256 10 -720 10 l-720 0 1 -502z m299 372 c0 -5 -4 -10 -10 -10
-5 0 -10 5 -10 10 0 6 5 10 10 10 6 0 10 -4 10 -10z m50 0 c-19 -13 -30 -13
-30 0 0 6 10 10 23 10 18 0 19 -2 7 -10z m-100 -15 c0 -8 -7 -15 -16 -15 -14
0 -14 3 -4 15 7 8 14 15 16 15 2 0 4 -7 4 -15z m150 -6 c0 -11 -4 -17 -10 -14
-5 3 -10 13 -10 21 0 8 5 14 10 14 6 0 10 -9 10 -21z m80 -11 c0 -16 -3 -19
-11 -11 -6 6 -8 16 -5 22 11 17 16 13 16 -11z m66 -116 l1 -42 -5 42 -6 43 -6
-45 -7 -45 -3 45 -3 45 -7 -45 -7 -45 -1 48 c-2 45 0 48 21 45 19 -3 22 -9 23
-46z m-191 -279 c-3 -13 -11 -23 -18 -23 -16 0 -97 52 -97 62 0 4 18 11 40 14
30 5 41 12 45 28 11 52 14 58 11 20 -2 -23 0 -48 5 -55 6 -9 9 7 11 46 l2 60
3 -65 c2 -35 1 -75 -2 -87z m42 80 c-3 -10 -5 -2 -5 17 0 19 2 27 5 18 2 -10
2 -26 0 -35z m-190 -65 c-2 -13 -4 -3 -4 22 0 25 2 35 4 23 2 -13 2 -33 0 -45z
m20 0 c-3 -8 -6 -5 -6 6 -1 11 2 17 5 13 3 -3 4 -12 1 -19z m-40 -10 c-3 -8
-6 -5 -6 6 -1 11 2 17 5 13 3 -3 4 -12 1 -19z m83 -83 c12 -22 11 -27 -4 -44
-10 -11 -24 -17 -32 -14 -12 4 -11 8 3 18 22 16 23 36 3 52 -13 11 -13 12 1
13 9 0 22 -11 29 -25z m-137 -20 c-7 -21 -13 -19 -13 6 0 11 4 18 10 14 5 -3
7 -12 3 -20z m-97 -32 c-10 -10 -19 5 -10 18 6 11 8 11 12 0 2 -7 1 -15 -2
-18z m252 -251 c2 -23 -1 -32 -12 -32 -20 0 -38 34 -30 55 11 28 39 13 42 -23z"/>
<path d="M2688 4493 c7 -3 16 -2 19 1 4 3 -2 6 -13 5 -11 0 -14 -3 -6 -6z"/>
<path d="M2890 4480 c0 -25 28 -36 106 -44 32 -2 100 -9 149 -15 50 -5 116
-11 149 -12 32 -2 79 -8 105 -15 34 -8 48 -8 53 0 5 6 8 0 9 -14 l1 -25 8 25
8 25 2 -25 c1 -23 2 -23 10 -5 5 11 9 15 9 9 1 -6 7 -11 14 -12 6 -1 68 -9
136 -17 74 -9 128 -20 133 -27 12 -20 9 -38 -7 -44 -25 -10 -17 -24 15 -24 25
0 30 4 30 25 0 14 5 25 10 25 6 0 10 -13 10 -30 0 -26 -4 -30 -27 -30 -56 0
-105 -13 -111 -29 -3 -9 -11 -19 -17 -23 -13 -8 3 -98 17 -98 10 0 10 8 -1 48
-8 25 -7 32 2 29 7 -2 14 -12 16 -22 2 -10 10 -26 19 -34 14 -15 14 -16 -1
-19 -20 -4 -20 1 -6 -62 6 -27 15 -50 20 -50 5 0 9 -9 9 -20 0 -14 11 -22 43
-30 23 -6 50 -13 60 -16 21 -6 23 -44 2 -44 -8 0 -15 7 -15 15 0 17 -16 20
-24 6 -4 -5 0 -12 6 -14 7 -3 4 -6 -8 -6 -11 -1 -29 -11 -40 -24 -18 -20 -19
-26 -8 -54 7 -17 20 -33 29 -36 21 -9 19 -27 -4 -27 -25 0 -51 36 -51 70 0 30
-42 76 -59 65 -14 -8 -46 -71 -55 -107 -8 -35 -29 -36 -44 -3 -9 20 -8 30 6
54 14 24 14 33 4 43 -10 10 -16 10 -32 0 -15 -9 -26 -10 -41 -1 -31 16 -40 -1
-22 -39 14 -28 14 -37 2 -60 -7 -15 -15 -30 -17 -34 -6 -13 33 -9 46 4 9 9 16
7 32 -10 26 -28 60 -28 94 -1 l27 21 22 -20 c27 -25 130 -40 152 -22 8 6 18 9
24 6 5 -3 7 3 4 14 -5 19 10 29 20 13 5 -11 0 8 -9 31 -5 14 -4 17 4 12 7 -4
12 -2 12 4 0 7 -6 10 -14 7 -8 -3 -22 0 -32 7 -16 12 -15 14 15 21 20 4 29 10
22 14 -9 6 -8 11 3 20 12 10 13 18 5 33 -15 27 -4 34 20 12 10 -11 21 -35 23
-54 2 -27 7 -34 21 -32 10 2 17 -3 17 -13 0 -18 16 -20 23 -2 3 6 2 -8 -1 -32
-5 -40 -3 -43 15 -37 14 4 23 1 27 -9 3 -8 12 -15 21 -15 8 0 15 -6 15 -14 0
-7 10 -21 23 -30 14 -11 16 -15 5 -12 -14 4 -78 -19 -78 -28 0 -1 16 0 35 2
19 2 35 0 35 -6 0 -16 -33 -24 -42 -10 -4 8 -8 8 -8 2 0 -6 -7 -11 -15 -11 -8
0 -15 4 -15 9 0 5 -5 6 -12 2 -7 -5 -26 -7 -42 -6 -62 5 -105 -33 -106 -91 -1
-21 -1 -22 -15 -3 -8 11 -15 27 -15 36 0 9 -9 25 -20 35 -27 25 -43 9 -69 -68
-21 -60 -16 -92 9 -62 17 21 40 19 66 -6 18 -16 26 -19 42 -10 15 8 28 7 51
-5 42 -21 86 -15 86 11 0 15 -8 21 -31 23 -41 4 -65 43 -41 66 21 21 69 20 88
-2 8 -10 20 -38 25 -62 8 -39 13 -45 37 -48 26 -3 32 4 28 36 -1 7 6 25 15 40
12 21 24 29 46 29 27 0 29 -3 27 -31 -3 -33 6 -56 21 -56 5 0 8 21 5 48 -4 42
-3 41 7 -11 9 -52 9 -59 -8 -72 -18 -13 -17 -14 14 -15 28 0 34 -5 48 -40 9
-22 22 -40 29 -40 9 0 13 -10 12 -27 -2 -22 2 -28 18 -28 17 0 20 -6 18 -45
-1 -43 -1 -43 6 -10 l8 35 5 -35 c4 -31 5 -29 6 14 2 54 11 56 19 6 2 -18 8
-42 13 -54 7 -18 9 -18 9 -3 1 10 5 16 10 13 7 -5 8 -50 2 -86 -1 -3 -6 2 -11
10 -8 13 -10 12 -10 -3 0 -11 9 -21 21 -24 12 -4 18 -11 15 -20 -10 -24 4 -34
21 -17 11 11 13 18 5 23 -7 4 -8 12 -2 21 6 9 10 303 10 723 l0 707 -805 0
c-802 0 -805 0 -805 -20z m967 -217 c-3 -10 -5 -2 -5 17 0 19 2 27 5 18 2 -10
2 -26 0 -35z m20 0 c-3 -10 -5 -2 -5 17 0 19 2 27 5 18 2 -10 2 -26 0 -35z
m-37 -313 c0 -5 -4 -10 -10 -10 -5 0 -10 5 -10 10 0 6 5 10 10 10 6 0 10 -4
10 -10z m77 -86 c-3 -3 -12 -4 -19 -1 -8 3 -5 6 6 6 11 1 17 -2 13 -5z m279
-253 c-3 -5 -15 -7 -26 -4 -28 7 -25 13 6 13 14 0 23 -4 20 -9z m104 -221 c0
-5 -4 -10 -10 -10 -5 0 -10 5 -10 10 0 6 5 10 10 10 6 0 10 -4 10 -10z m27
-72 c-3 -8 -6 -5 -6 6 -1 11 2 17 5 13 3 -3 4 -12 1 -19z"/>
<path d="M2857 4483 c-12 -11 -8 -23 8 -23 8 0 15 7 15 15 0 16 -12 20 -23 8z"/>
<path d="M614 4256 c-43 -15 -45 -29 -7 -40 18 -6 34 -17 36 -25 3 -9 5 5 6
32 0 26 0 46 -1 46 -2 -1 -17 -6 -34 -13z"/>
<path d="M2550 4039 c-25 -4 -72 -8 -105 -8 -75 -1 -120 -13 -216 -58 l-76
-35 -49 22 c-70 32 -173 46 -238 33 -192 -41 -318 -192 -318 -383 0 -135 66
-257 174 -326 47 -30 48 -30 48 1 0 15 6 38 14 53 7 15 17 43 21 62 4 19 16
46 27 61 21 28 18 49 -7 49 -7 0 -24 -17 -36 -37 -36 -59 -79 -103 -100 -103
-11 0 -29 16 -43 38 -83 124 -78 279 12 381 l29 34 18 -54 c10 -30 35 -85 57
-124 21 -38 43 -81 50 -95 7 -14 13 -26 14 -28 8 -12 59 39 89 87 54 88 161
164 257 181 88 17 92 18 123 34 17 9 38 16 48 16 21 0 174 -46 200 -61 10 -5
27 -7 38 -4 11 4 19 2 19 -4 0 -6 7 -11 16 -11 12 0 15 -7 12 -30 -3 -17 0
-30 6 -30 6 0 2 -6 -9 -12 -20 -12 -50 -47 -50 -60 0 -4 -6 -13 -12 -19 -7 -7
-13 -18 -13 -25 0 -16 -28 -26 -34 -11 -2 7 -5 2 -5 -10 -1 -15 -8 -23 -18
-24 -11 0 -13 -3 -5 -6 17 -7 15 -32 -3 -39 -8 -4 -15 -12 -15 -20 0 -8 -4
-14 -9 -14 -5 0 -9 -10 -10 -22 0 -13 -2 -39 -3 -58 -3 -31 0 -35 31 -44 22
-6 39 -6 50 1 23 14 71 5 71 -13 0 -8 7 -17 15 -20 23 -9 20 -80 -4 -101 -39
-35 -50 -43 -66 -43 -8 0 -15 -4 -15 -10 0 -5 -11 -10 -25 -10 -14 0 -25 -4
-25 -10 0 -5 -7 -10 -15 -10 -8 0 -15 -6 -16 -12 0 -7 -16 -26 -36 -42 l-35
-29 -23 29 c-14 16 -24 35 -25 43 0 8 -3 12 -6 8 -4 -3 -13 0 -21 8 -12 13
-16 13 -29 1 -8 -8 -14 -21 -14 -30 0 -8 -5 -18 -10 -21 -6 -4 -9 -9 -6 -13 2
-4 0 -16 -4 -27 -7 -19 -8 -18 -20 7 -7 15 -22 31 -34 35 -36 12 -109 10 -166
-4 -72 -17 -100 -32 -93 -49 4 -10 -3 -14 -23 -14 -16 0 -47 -7 -69 -15 -53
-19 -65 -18 -66 3 0 13 -2 12 -9 -5 -6 -15 -18 -23 -33 -23 -13 0 -28 -5 -35
-12 -16 -16 -15 -64 2 -91 8 -12 22 -53 30 -90 29 -124 43 -138 149 -151 33
-4 57 -12 57 -19 0 -7 14 -20 31 -29 l30 -18 -25 -33 c-14 -18 -29 -52 -35
-77 -5 -24 -16 -49 -24 -55 -24 -18 -48 -74 -49 -118 0 -30 10 -63 36 -113 20
-39 36 -78 36 -87 0 -19 28 -49 40 -42 4 3 10 -2 14 -10 3 -8 13 -15 21 -15
13 0 15 6 9 33 -12 53 -5 116 14 137 20 21 60 19 97 -4 11 -7 35 -18 53 -24
36 -12 36 -13 47 50 l6 37 -78 3 c-77 3 -78 3 -75 28 2 14 8 29 13 34 5 6 9
39 9 74 0 58 11 99 31 112 12 8 59 80 59 90 0 4 -19 11 -42 15 -70 12 -77 22
-19 30 69 9 98 37 152 143 48 94 68 111 104 88 20 -13 23 -22 21 -63 -2 -26
-12 -86 -24 -133 -18 -73 -41 -197 -44 -237 -1 -7 -6 -13 -12 -13 -6 0 -4 -4
4 -10 25 -15 4 -22 -36 -11 -47 13 -54 7 -25 -23 15 -16 21 -31 17 -44 -5 -15
-1 -21 20 -26 14 -4 37 -14 51 -23 24 -16 24 -17 7 -24 -11 -4 -40 -8 -66 -8
-45 -1 -57 -8 -41 -24 3 -4 12 -2 19 4 8 6 22 8 31 4 10 -4 31 -9 47 -11 16
-2 35 -9 42 -15 9 -7 19 -7 34 1 30 16 60 4 60 -26 0 -13 -4 -24 -8 -24 -4 0
-25 -23 -46 -51 -36 -49 -38 -54 -27 -89 6 -21 29 -57 52 -81 32 -34 39 -48
34 -68 -4 -14 -15 -31 -25 -38 -11 -8 -17 -19 -14 -26 5 -13 -30 -57 -45 -57
-5 0 -12 -12 -16 -27 -9 -37 -21 -50 -62 -70 -19 -9 -30 -19 -24 -22 7 -4 3
-14 -10 -24 -16 -15 -26 -16 -56 -8 -20 6 -38 9 -40 7 -6 -6 82 -71 93 -68 6
1 18 -5 25 -15 11 -13 11 -15 1 -9 -8 5 -29 9 -47 10 -48 2 -31 -23 42 -59 32
-15 72 -38 88 -50 17 -12 37 -24 45 -28 9 -3 10 -6 3 -6 -10 -1 -10 -7 -2 -25
11 -23 13 -23 124 -20 93 3 114 1 119 -11 3 -8 5 -18 5 -22 -1 -12 32 -24 51
-18 11 4 20 2 20 -4 0 -6 6 -11 14 -11 8 0 17 -6 19 -12 4 -10 6 -10 6 0 1 9
5 10 20 0 24 -15 55 3 190 111 56 45 106 81 110 81 12 0 219 208 252 254 16
21 29 52 29 68 0 27 2 28 48 28 199 1 372 159 389 356 12 151 -62 289 -196
366 -23 13 -41 27 -41 31 0 4 18 38 40 74 30 50 40 77 40 107 -1 45 -22 156
-34 175 -15 23 -50 29 -96 15 -25 -8 -45 -14 -46 -14 -1 0 1 44 3 98 3 53 0
116 -5 140 -7 29 -7 52 1 72 12 30 12 29 -38 120 -36 66 -33 108 8 101 19 -3
75 32 84 52 10 21 10 21 26 -10 18 -33 71 -59 100 -47 21 8 12 24 -12 24 -23
0 -51 31 -51 58 0 30 28 54 59 50 18 -2 26 2 26 12 0 10 -12 16 -38 18 -32 3
-43 -2 -67 -28 l-30 -32 -29 31 c-36 38 -69 40 -109 6 -36 -30 -42 -31 -42 -5
0 11 -11 27 -25 36 -14 9 -36 37 -49 63 -20 41 -22 55 -15 105 8 59 22 86 45
86 15 0 23 -24 26 -90 3 -44 4 -45 41 -48 39 -3 51 12 17 21 -26 7 -26 33 2
48 l21 11 -23 18 -23 18 21 11 c42 22 22 30 -78 30 -101 0 -122 -7 -95 -29 20
-17 21 -100 0 -100 -8 0 -40 32 -71 70 -43 54 -71 78 -117 101 -96 47 -259 99
-326 103 -34 2 -67 8 -74 14 -19 15 -77 20 -127 11z m-560 -139 c11 -11 20
-29 20 -40 0 -32 -38 -124 -62 -150 l-22 -24 -24 52 c-30 67 -34 133 -8 161
24 27 70 27 96 1z m-210 -104 c6 -27 28 -83 49 -125 21 -42 36 -82 34 -88 -11
-31 -34 -7 -78 78 -56 109 -71 192 -39 224 19 18 19 18 22 -11 1 -16 7 -51 12
-78z m1738 -248 c30 -30 1 -104 -36 -91 -48 18 -42 103 8 103 9 0 21 -5 28
-12z m-1505 -584 c7 -8 -26 -41 -50 -48 -30 -9 -93 -80 -98 -109 -4 -19 0 -27
15 -32 23 -7 50 10 50 31 0 22 20 27 65 14 36 -10 42 -15 32 -26 -7 -7 -18
-20 -25 -29 -14 -17 -48 -20 -57 -5 -7 12 -25 13 -25 2 0 -5 25 -17 55 -27 52
-18 57 -18 112 -1 104 31 141 54 158 100 l15 41 -5 -47 c-6 -58 -40 -135 -69
-153 -29 -19 -215 -33 -305 -24 -46 5 -80 14 -92 25 -21 19 -39 74 -39 120 0
30 1 31 40 28 28 -2 40 1 40 11 0 12 -30 28 -55 30 -5 0 -11 12 -13 27 -2 19
3 30 20 40 44 25 214 49 231 32z m822 -245 c30 -2 -33 -16 -78 -18 -25 -1 -36
3 -31 10 3 6 15 9 25 6 11 -3 19 -1 19 5 0 6 10 8 23 4 12 -3 31 -6 42 -7z
m-32 -66 c-13 -2 -33 -2 -45 0 -13 2 -3 4 22 4 25 0 35 -2 23 -4z m17 -140 c0
-17 -5 -16 -40 2 -17 9 -30 22 -30 29 0 18 69 -13 70 -31z m850 -72 c5 -11 10
-33 10 -48 0 -30 -29 -122 -46 -145 -5 -7 -19 -30 -29 -51 -11 -21 -29 -47
-41 -58 -19 -18 -22 -18 -35 -3 -11 13 -10 20 4 42 40 66 90 179 94 216 8 71
22 86 43 47z m70 -84 c0 -7 9 -18 20 -25 11 -7 20 -20 20 -30 0 -10 5 -23 12
-30 6 -6 11 -46 11 -99 1 -69 -4 -98 -21 -135 -48 -107 -92 -135 -128 -81 -9
15 -21 32 -26 38 -23 28 -58 87 -58 98 0 7 19 42 43 78 40 61 64 109 87 172 9
27 40 38 40 14z m-240 -66 c-24 -49 -39 -51 -68 -12 -24 33 -20 41 22 41 17 0
38 4 46 10 23 14 23 5 0 -39z m-30 -256 c0 -8 -7 -15 -15 -15 -8 0 -15 7 -15
15 0 8 7 15 15 15 8 0 15 -7 15 -15z m-45 -55 c0 -7 -6 -15 -12 -17 -8 -3 -13
4 -13 17 0 13 5 20 13 18 6 -3 12 -11 12 -18z m124 -40 c48 -48 59 -68 45 -83
-13 -13 -43 15 -73 67 -48 83 -43 86 28 16z m-59 -37 c57 -54 54 -71 -12 -68
-78 3 -78 3 -78 32 0 22 33 73 47 73 2 0 21 -17 43 -37z m-980 -103 c0 -5 -2
-10 -4 -10 -3 0 -8 5 -11 10 -3 6 -1 10 4 10 6 0 11 -4 11 -10z"/>
<path d="M3775 3920 c3 -5 10 -10 16 -10 5 0 9 5 9 10 0 6 -7 10 -16 10 -8 0
-12 -4 -9 -10z"/>
<path d="M90 3710 c0 -5 5 -10 10 -10 6 0 10 5 10 10 0 6 -4 10 -10 10 -5 0
-10 -4 -10 -10z"/>
<path d="M130 3710 c0 -5 5 -10 10 -10 6 0 10 5 10 10 0 6 -4 10 -10 10 -5 0
-10 -4 -10 -10z"/>
<path d="M110 3675 c0 -8 4 -15 9 -15 5 0 11 7 15 15 3 9 0 15 -9 15 -8 0 -15
-7 -15 -15z"/>
<path d="M0 3334 c1 -109 14 -136 57 -113 20 11 27 11 30 2 6 -18 42 -16 49 2
5 13 9 13 34 0 50 -26 95 -19 125 18 l26 32 -3 -45 c-2 -36 1 -45 15 -48 24
-5 37 36 37 118 0 78 -13 96 -43 59 -18 -22 -20 -22 -32 -6 -19 26 -69 41 -94
27 -12 -6 -21 -7 -21 -3 0 4 -7 -2 -15 -13 -15 -19 -15 -19 -32 3 -11 13 -35
24 -63 28 -25 4 -51 12 -57 17 -10 8 -13 -9 -13 -78z m249 -18 c12 -14 5 -46
-13 -58 -15 -10 -36 11 -36 37 0 36 27 48 49 21z"/>
<path d="M400 3365 c-12 -15 -16 -127 -5 -146 7 -10 45 -12 69 -3 13 5 12 9
-7 25 l-22 19 23 19 23 20 -22 12 c-21 11 -21 13 -6 24 23 17 21 32 -5 39 -32
8 -34 8 -48 -9z"/>
<path d="M542 3354 c-32 -22 -44 -51 -37 -85 7 -29 47 -59 80 -59 23 0 18 15
-10 28 -20 9 -25 19 -25 47 0 36 5 40 65 60 16 5 17 8 5 15 -22 14 -53 12 -78
-6z"/>
<path d="M670 3352 c0 -4 4 -12 9 -17 6 -6 11 -32 13 -60 4 -62 22 -66 26 -5
2 25 7 49 13 55 20 20 9 35 -26 35 -19 0 -35 -4 -35 -8z"/>
<path d="M3629 3283 c-5 -15 -9 -47 -7 -72 3 -42 5 -46 32 -49 27 -3 28 -2 13
13 -21 20 -21 34 -2 41 17 7 21 34 5 34 -16 0 -12 30 5 36 20 8 9 24 -16 24
-12 0 -23 -10 -30 -27z"/>
<path d="M3781 3298 c-25 -9 -51 -47 -51 -76 0 -33 43 -72 80 -72 16 0 30 5
30 10 0 6 -8 10 -18 10 -24 0 -52 31 -52 56 0 33 17 47 65 54 62 9 86 -11 81
-67 -4 -45 2 -63 19 -63 17 0 25 23 25 71 0 28 6 42 20 51 11 7 20 18 20 25 0
10 -25 12 -101 10 -55 -1 -108 -5 -118 -9z"/>
<path d="M3560 3213 c0 -54 3 -73 10 -63 13 20 13 140 0 140 -6 0 -10 -32 -10
-77z"/>
<path d="M4353 3180 c0 -25 2 -35 4 -22 2 12 2 32 0 45 -2 12 -4 2 -4 -23z"/>
<path d="M1762 3190 c0 -14 2 -19 5 -12 2 6 2 18 0 25 -3 6 -5 1 -5 -13z"/>
<path d="M1761 3064 c0 -11 3 -14 6 -6 3 7 2 16 -1 19 -3 4 -6 -2 -5 -13z"/>
<path d="M164 2626 c-28 -7 -75 -26 -105 -43 l-54 -30 -3 -113 c-1 -63 1 -116
6 -119 4 -3 15 -22 25 -42 9 -19 25 -43 36 -53 l20 -19 -18 39 c-25 53 -34 84
-24 84 11 0 47 -60 36 -60 -4 0 -3 -4 3 -8 6 -4 23 -27 39 -51 23 -37 25 -46
13 -55 -8 -6 -20 -24 -26 -41 -21 -50 -70 -97 -93 -90 -18 6 -20 3 -17 -37 3
-43 3 -43 81 -83 75 -38 82 -39 175 -40 84 0 104 4 152 26 134 63 222 189 229
327 10 206 -120 374 -318 412 -66 12 -92 12 -157 -4z m135 -81 c36 -18 43 -47
29 -105 -12 -48 -45 -110 -58 -110 -14 0 -26 24 -44 83 -20 66 -15 104 17 129
27 21 22 21 56 3z m-199 -69 c0 -38 26 -118 51 -161 41 -68 50 -86 44 -95 -13
-21 -26 -8 -60 59 -43 87 -70 180 -61 215 9 35 26 23 26 -18z m370 29 c16 -20
5 -91 -23 -153 -32 -69 -80 -142 -94 -142 -26 0 -22 23 22 103 28 52 50 108
56 146 12 63 18 71 39 46z m70 -80 c0 -8 6 -18 14 -22 42 -25 68 -156 47 -240
-15 -60 -69 -151 -95 -159 -23 -8 -57 30 -100 112 l-28 54 39 67 c44 76 66
120 88 176 14 36 35 43 35 12z m-365 -434 c-16 -32 -33 -47 -42 -37 -6 6 38
65 50 65 4 1 1 -12 -8 -28z m199 -7 c29 -35 28 -57 -2 -38 -17 11 -47 75 -35
73 5 0 21 -16 37 -35z m-156 -48 c-7 -8 -15 -12 -17 -11 -5 6 10 25 20 25 5 0
4 -6 -3 -14z m107 3 c10 -15 2 -19 -23 -12 -12 3 -19 9 -16 14 7 12 31 11 39
-2z"/>
<path d="M2406 2158 c-3 -13 -1 -27 4 -32 7 -7 10 1 10 22 0 37 -5 41 -14 10z"/>
<path d="M4486 2064 c-9 -25 -7 -64 4 -64 6 0 10 18 10 40 0 43 -4 50 -14 24z"/>
<path d="M3495 1633 c35 -87 32 -105 -51 -346 -13 -38 -24 -80 -24 -93 0 -13
-4 -32 -9 -42 -5 -9 -14 -35 -20 -57 -31 -120 -67 -222 -83 -235 -18 -16 -78
-130 -78 -150 0 -22 26 14 58 80 17 36 31 59 31 52 1 -17 -105 -391 -184 -647
-52 -170 -55 -179 -55 -187 0 -5 320 -8 710 -8 l710 0 0 553 0 553 -159 67
c-88 37 -219 83 -293 102 -82 22 -148 46 -173 63 -21 15 -100 83 -175 152 -74
69 -146 134 -160 143 -33 23 -54 22 -45 0z"/>
<path d="M2040 1403 c0 -87 72 -212 228 -394 11 -12 29 -19 52 -19 l35 1 -22
18 c-12 10 -20 21 -17 24 3 3 -4 8 -15 12 -12 3 -21 9 -21 13 0 4 -14 23 -31
42 -49 57 -134 181 -157 230 -11 25 -23 64 -27 88 -10 61 -25 52 -25 -15z"/>
<path d="M1939 1265 c-8 -8 -73 -46 -144 -83 -215 -114 -297 -159 -359 -196
-33 -20 -72 -36 -87 -36 -15 0 -30 -4 -34 -9 -3 -5 -42 -22 -88 -37 -45 -15
-113 -40 -151 -56 -38 -15 -84 -28 -103 -28 -40 0 -173 -50 -173 -65 0 -6 -18
-32 -39 -57 -21 -26 -51 -68 -65 -93 -15 -25 -31 -45 -36 -45 -6 0 -10 -11
-10 -24 0 -13 -11 -57 -24 -97 -51 -155 -56 -184 -56 -313 l0 -126 574 0 c483
0 575 2 585 14 7 8 11 37 9 68 -3 39 -6 48 -12 33 -23 -59 -26 -59 -22 0 7 87
33 219 46 223 5 2 10 17 10 33 0 30 37 115 46 106 5 -5 -29 -147 -46 -191 -11
-31 2 -42 22 -18 48 57 81 177 79 289 -1 95 24 263 59 398 18 69 47 311 38
320 -2 2 -11 -2 -19 -10z"/>
<path d="M6 1058 c11 -105 27 -102 38 5 6 56 6 57 -19 57 -24 0 -25 -1 -19
-62z"/>
<path d="M117 1103 c-4 -3 -7 -33 -7 -65 0 -43 4 -58 14 -58 15 0 24 52 18
103 -3 26 -12 34 -25 20z"/>
<path d="M410 1080 c0 -5 5 -10 10 -10 6 0 10 5 10 10 0 6 -4 10 -10 10 -5 0
-10 -4 -10 -10z"/>
<path d="M258 1068 c-7 -21 3 -48 19 -48 10 0 13 9 11 27 -3 28 -23 42 -30 21z"/>
<path d="M2645 1030 c-7 -12 12 -12 40 0 18 8 17 9 -7 9 -15 1 -30 -3 -33 -9z"/>
<path d="M435 1020 c3 -5 8 -10 11 -10 2 0 4 5 4 10 0 6 -5 10 -11 10 -5 0 -7
-4 -4 -10z"/>
<path d="M2225 960 c3 -5 11 -10 16 -10 6 0 7 5 4 10 -3 6 -11 10 -16 10 -6 0
-7 -4 -4 -10z"/>
<path d="M2478 953 c7 -3 16 -2 19 1 4 3 -2 6 -13 5 -11 0 -14 -3 -6 -6z"/>
<path d="M2167 933 c-14 -13 -6 -22 36 -42 51 -25 64 -26 47 -6 -7 8 -17 15
-23 15 -6 0 -20 9 -32 20 -12 11 -25 17 -28 13z"/>
<path d="M2365 932 c-3 -3 4 -11 15 -19 19 -14 40 -10 40 6 0 10 -47 21 -55
13z"/>
<path d="M2775 920 c3 -5 8 -10 11 -10 2 0 4 5 4 10 0 6 -5 10 -11 10 -5 0 -7
-4 -4 -10z"/>
<path d="M2616 895 c4 -8 1 -15 -5 -15 -12 0 -27 -32 -33 -70 -2 -16 2 -24 14
-26 13 -1 20 8 28 34 13 47 13 92 0 92 -5 0 -7 -7 -4 -15z"/>
<path d="M2110 863 c-24 -35 -25 -43 -28 -227 -3 -180 -2 -193 17 -215 l20
-23 4 164 c2 89 9 199 16 242 6 43 8 83 4 87 -5 5 -19 -8 -33 -28z"/>
<path d="M2706 853 c-9 -26 -16 -55 -16 -65 0 -33 27 -19 44 22 20 49 20 58 2
76 -12 12 -16 7 -30 -33z"/>
<path d="M2175 736 c-9 -180 10 -351 35 -306 37 69 35 379 -3 428 -5 6 -13 12
-17 12 -4 0 -11 -60 -15 -134z"/>
<path d="M5 840 c-4 -6 2 -30 13 -53 11 -23 22 -50 25 -59 11 -31 35 -19 50
25 8 23 18 50 22 60 4 10 3 17 -4 17 -6 0 -11 -8 -11 -19 0 -21 -27 -47 -38
-37 -4 4 -12 21 -18 39 -11 33 -28 45 -39 27z"/>
<path d="M2484 838 c-5 -7 -9 -31 -10 -52 -2 -33 0 -37 8 -21 26 45 27 114 2
73z"/>
<path d="M2833 830 c5 -19 -13 -84 -47 -172 -31 -80 -13 -84 29 -6 29 52 41
154 22 180 -6 10 -8 9 -4 -2z"/>
<path d="M162 818 c-16 -16 -15 -73 1 -86 9 -8 12 2 13 44 0 30 0 54 -1 54 -1
0 -6 -5 -13 -12z"/>
<path d="M2265 793 c4 -21 11 -53 17 -72 6 -19 8 -66 6 -105 -3 -39 -2 -82 2
-96 7 -24 8 -24 25 14 24 56 21 111 -9 183 -14 35 -26 74 -26 88 0 14 -5 25
-10 25 -7 0 -9 -14 -5 -37z"/>
<path d="M262 776 c1 -40 3 -43 14 -28 17 22 17 33 0 55 -13 16 -14 14 -14
-27z"/>
<path d="M525 810 c3 -5 8 -10 11 -10 2 0 4 5 4 10 0 6 -5 10 -11 10 -5 0 -7
-4 -4 -10z"/>
<path d="M2340 791 c0 -11 7 -26 15 -34 8 -8 11 -18 7 -22 -4 -5 -1 -5 6 -1
16 9 15 36 -2 59 -17 22 -26 22 -26 -2z"/>
<path d="M327 793 c-11 -10 -8 -27 6 -47 12 -16 13 -14 9 18 -4 38 -5 40 -15
29z"/>
<path d="M0 518 c0 -61 2 -69 13 -54 12 16 14 16 26 2 19 -23 34 -20 28 5 -3
12 -1 32 4 46 10 28 -5 67 -24 60 -7 -2 -20 0 -29 5 -16 8 -18 2 -18 -64z m40
21 c0 -5 -4 -9 -10 -9 -5 0 -10 7 -10 16 0 8 5 12 10 9 6 -3 10 -10 10 -16z"/>
<path d="M122 548 c-16 -16 -15 -73 2 -87 12 -10 15 -3 18 44 3 57 0 63 -20
43z"/>
<path d="M214 544 c3 -9 6 -29 6 -45 0 -16 4 -29 9 -29 17 0 23 42 10 66 -14
27 -35 33 -25 8z"/>
<path d="M290 483 c0 -81 5 -79 14 5 5 41 3 62 -4 62 -6 0 -10 -27 -10 -67z"/>
<path d="M357 532 c-2 -11 -1 -37 2 -58 l7 -39 7 40 c9 54 9 75 -2 75 -5 0
-11 -8 -14 -18z"/>
<path d="M2383 483 c-20 -48 -25 -72 -17 -85 7 -11 41 68 43 100 2 22 -14 13
-26 -15z"/>
</g>
</svg>
